<svg xmlns="http://www.w3.org/2000/svg" viewBox="0 0 130 138.4"><style>.st0{fill:#a4a4a4}.st1{fill:#fff}.st2{fill:#a0a0a0}</style><path d="M118.9 105l-.7-.1c-.7-.1-1.3-.4-1.9-.8l-.5-.3.7-1.1.5.3c.5.3.9.5 1.5.6l.7.1-.3 1.3zm2.2-.1l-.4-1.2.6-.2c.5-.2 1-.5 1.4-.8l.5-.4.8 1-.5.4c-.5.5-1.1.8-1.8 1l-.6.2zm-6.6-2.7l-.3-.6c-.3-.6-.5-1.3-.6-2l-.1-.7 1.3-.1.1.7c.1.5.2 1.1.5 1.6l.3.6-1.2.5zm10.7-.6l-1.2-.4.2-.6c.2-.5.3-1.1.3-1.6v-.7h1.3v.7h-.7.7c0 .7-.1 1.4-.3 2.1l-.3.5zM115 97.4l-1.1-.5.3-.6c.3-.6.7-1.2 1.2-1.7l.5-.5.9.9-.5.5c-.4.4-.7.8-.9 1.3l-.4.6zm9.1-.6l-.3-.5c-.3-.5-.7-.9-1.1-1.2l-.5-.4.8-1 .5.4c.5.4 1 .9 1.4 1.5l.3.5-1.1.7zm-6.1-2.5l-.3-1.3.6-.1c.7-.1 1.4-.2 2.1-.1l.7.1-.1 1.3-.7-.1c-.5-.1-1.1 0-1.6.1l-.7.1zM18.3 78.5v-1.3h.7c.6 0 1.2-.1 1.8-.1l.7-.1.2 1.3-.7.1c-.7.1-1.3.1-1.9.1h-.8zm-2-.1l-.7-.1c-.7-.1-1.3-.2-1.9-.4l-.6-.1.3-1.3.6.1c.6.1 1.2.3 1.8.3l.7.1-.2 1.4zm7.1-.6l-.4-1.2.6-.2c.6-.2 1.1-.4 1.7-.7l.6-.3.5 1.1-.6.3c-.6.3-1.2.5-1.8.7l-.6.3zm-12.2-.6l-.6-.3c-.6-.3-1.2-.6-1.7-.9l-.5-.3.6-1.1.6.4c.5.3 1.1.6 1.6.8l.6.3-.6 1.1zm16.9-1.6l-.7-1.1.5-.3c.5-.3 1-.7 1.5-1.1l.5-.4.8.9-.5.4-1.5 1.2-.6.4zM6.8 74.5l-.5-.4c-.5-.4-.9-.9-1.4-1.3l-.5-.5.9-.9.5.5c.4.5.9.9 1.3 1.3l.5.4-.8.9zM32 72.2l-1-.8.4-.5c.4-.5.7-.9 1.1-1.5l.3-.5 1.1.7-.3.5c-.3.5-.7 1.1-1.1 1.6l-.5.5zM3.3 70.7l-.3-.5c-.3-.5-.7-1.1-.9-1.7l-.3-.6 1.1-.6.3.6c.2.6.5 1.1.8 1.6l.3.5-1 .7zm31.5-2.8l-1.2-.5.3-.6c.2-.5.5-1.1.6-1.7l.2-.6 1.2.3-.2.6c-.2.7-.4 1.3-.7 1.9l-.2.6zM.9 66.1l-.2-.6c-.2-.6-.3-1.3-.5-1.9l-.1-.7 1.3-.2.1.7c.1.6.3 1.2.4 1.7l.2.6-1.2.4zm35.4-3.2l-1.3-.2.1-.7c.1-.6.1-1.2.1-1.8v-.7h1.3v.7c0 .7 0 1.3-.1 1.9l-.1.8zm-35-2H0v-.7c0-.7 0-1.3.1-1.9l.1-.7 1.3.1-.1.7c-.1.6-.1 1.2-.1 1.8v.7zM35 57.8l-.1-.7c-.1-.6-.3-1.2-.4-1.7l-.2-.6 1.2-.3.2.6c.2.6.3 1.3.5 1.9l.1.7-1.3.1zM1.8 56.2l-1.2-.3.2-.6c.2-.7.4-1.3.7-1.9l.3-.6 1.2.5-.3.6c-.2.5-.5 1.1-.6 1.7l-.3.6zm31.8-3l-.3-.6c-.3-.5-.6-1.1-.9-1.6l-.3-.5 1.1-.7.3.5c.3.5.7 1.1 1 1.7l.3.6-1.2.6zm-30-1.5L2.5 51l.3-.5c.3-.5.7-1.1 1.1-1.6l.4-.5 1 .8-.3.4c-.4.5-.7.9-1.1 1.5l-.3.6zM31 49.1l-.5-.5c-.4-.5-.9-.9-1.3-1.3l-.4-.3.8-.9.5.4c.5.4.9.9 1.4 1.3l.5.5-1 .8zM6.6 47.9l-.8-.9.5-.4 1.5-1.2.5-.3.7 1.1-.5.3c-.5.3-1 .7-1.5 1.1l-.4.3zM27.4 46l-.5-.3c-.5-.3-1.1-.6-1.6-.8l-.6-.3.5-1.1.6.3c.6.3 1.2.6 1.7.9l.5.3-.6 1zm-16.8-.9L10 44l.6-.3c.6-.3 1.2-.5 1.8-.7l.6-.2.4 1.2-.6.2c-.6.2-1.1.4-1.7.7l-.5.2zM23 44l-.6-.1c-.6-.1-1.2-.3-1.8-.3l-.7-.1.2-1.3.7.1c.7.1 1.3.2 1.9.4l.6.1L23 44zm-7.8-.4l-.2-1.3.7-.1c.7-.1 1.3-.1 1.9-.2h.7l.1 1.3h-.7c-.6 0-1.2.1-1.8.1l-.7.2zm96.9-11.9l-.7-.1c-.7-.1-1.3-.3-1.9-.5l-.6-.2.5-1.2.6.2c.5.2 1.1.3 1.7.4l.7.1-.3 1.3zm2-.1l-.3-1.3.7-.1c.6-.1 1.1-.3 1.6-.5l.6-.3.5 1.1-.6.3c-.6.3-1.3.5-1.9.7l-.6.1zm-7-1.8l-.5-.4c-.5-.5-.9-.9-1.4-1.5l-.4-.5 1-.8.4.5c.3.5.7.9 1.2 1.3l.5.4-.8 1zm11.8-.4l-.9-.9.5-.5c.4-.4.8-.9 1.1-1.3l.3-.5 1.1.7-.3.5c-.3.6-.8 1.1-1.3 1.6l-.5.4zM104 25.7l-.2-.6c-.2-.7-.3-1.3-.3-1.9v-.7l1.3-.1v.7c0 .6.1 1.1.3 1.7l.2.6-1.3.3zm17.7-.8l-1.3-.3.1-.7c.1-.6.2-1.1.2-1.7v-.7h1.3v.7c0 .7-.1 1.3-.2 2l-.1.7zm-16.9-4.2l-1.2-.3.2-.6c.2-.7.5-1.3.8-1.9l.3-.6 1.1.6-.3.6c-.3.5-.5 1.1-.7 1.6l-.2.6zm15.7-.6l-.2-.6c-.2-.5-.5-1.1-.8-1.5l-.3-.5 1.1-.7.3.5c.3.6.7 1.1.9 1.8l.2.6-1.2.4zm-13.6-3.4l-.8-.9.5-.4c.5-.5 1.1-.8 1.6-1.1l.6-.3.6 1.1-.6.3c-.5.3-1 .6-1.4 1l-.5.3zm11.1-.4l-.5-.4c-.5-.3-.9-.7-1.5-.9l-.6-.3.5-1.1.6.3c.6.3 1.2.6 1.7 1l.5.4-.7 1zm-7.1-1.9l-.2-1.3.7-.1c.7-.1 1.3-.1 2-.1h.7l-.1 1.3h-.7c-.6 0-1.1 0-1.7.1l-.7.1z" class="st0"/><path d="M117.9 116.4H13.2L20 25.1h91.3c.2 0 .2 0 6.6 91.3z" class="st1"/><path d="M117.9 118H13.2c-.5 0-.9-.2-1.2-.5-.3-.3-.5-.8-.4-1.2L18.5 25c.1-.8.8-1.5 1.6-1.5h91.3c.8 0 1.5.7 1.6 1.5l6.4 91.3c0 .5-.1.9-.4 1.2-.2.3-.7.5-1.1.5zM15 114.9h101.2L110 26.8H21.5L15 114.9zm75.8-55.5h-3.2V25.3c0-12.2-9.9-22.1-22.1-22.1s-22.1 9.9-22.1 22.1v34.2h-3.2V25.3C40.3 11.4 51.6 0 65.5 0s25.3 11.3 25.3 25.3v34.1z" class="st0"/><circle cx="89.2" cy="57.8" r="6.1" class="st2"/><circle cx="42.1" cy="57.8" r="6.1" class="st2"/><path fill="#f2f2f2" d="M24.2 114.9h-9.3l6.6-88.2h9.3z"/><path d="M92.46 8.7l6.65-6.64.93.92-6.65 6.65zm-.09-5.78L93.3 2l6.64 6.65-.92.9zM2.96 88.15l4.52-4.53.92.92-4.52 4.53zm-.06-3.61l.9-.92 4.53 4.52-.92.92zm122.58 4.76l3.6-3.6.92.9-3.6 3.6zm-.03-2.7l.92-.93 3.6 3.6-.92.92z" class="st0"/><path d="M55 73.6c.7-.7 4.8-4.5 11-4.3 5.6.1 9.3 3.5 10.1 4.3" class="st1"/><path d="M55 75.2c-.4 0-.8-.1-1.1-.5-.6-.7-.6-1.6 0-2.3 1.2-1.2 5.6-5 12.2-4.8 5.8.2 9.8 3.4 11.2 4.8.7.6.7 1.6 0 2.3-.6.7-1.6.7-2.3 0-1.1-1.1-4.3-3.7-9-3.9-5.3-.1-8.8 2.9-9.8 3.9-.4.3-.8.5-1.2.5z" class="st0"/><ellipse cx="65.9" cy="135.1" fill="#eaeaea" rx="41.7" ry="3.3"/></svg>