<svg width="40" height="40" viewBox="0 0 40 40" fill="none" xmlns="http://www.w3.org/2000/svg">
<path d="M36 0H4C1.79086 0 0 1.79086 0 4V36C0 38.2091 1.79086 40 4 40H36C38.2091 40 40 38.2091 40 36V4C40 1.79086 38.2091 0 36 0Z" fill="white"/>
<g clip-path="url(#clip0)">
<path d="M36 0H4C1.79086 0 0 1.79086 0 4V36C0 38.2091 1.79086 40 4 40H36C38.2091 40 40 38.2091 40 36V4C40 1.79086 38.2091 0 36 0Z" fill="#1093D5"/>
<path d="M11.7815 8.17171C10.8453 8.17021 10.1791 8.53111 9.76835 9.34311C9.19435 8.48481 8.71075 8.16701 7.69875 8.16551C6.79365 8.16411 6.12965 8.42171 5.64105 9.22691L5.64155 8.93801C5.64005 8.50891 5.29245 8.16221 4.86435 8.16121L3.67495 8.15941L3.66455 14.9929C3.66515 15.422 4.01275 15.7695 4.44085 15.7693L5.62915 15.7711L5.63805 10.9508C5.64365 10.2951 6.17865 9.76801 6.83345 9.77321C7.48825 9.77871 8.01505 10.3149 8.00955 10.9701L8.00345 14.9994C8.00355 15.4282 8.35035 15.7757 8.77845 15.7755L9.96875 15.7773L9.97595 10.9947C9.98565 10.3261 10.5344 9.79171 11.2021 9.80131C11.8582 9.81071 12.387 10.3418 12.3943 10.9984L12.3882 15.0061C12.3888 15.4352 12.7368 15.7831 13.1653 15.7825L14.3126 15.7843L14.3203 10.6465C14.3216 9.25911 13.2801 8.17391 11.7815 8.17171Z" fill="white"/>
<path d="M28.3594 8.63641C27.7087 8.35861 27.0102 8.20811 26.3028 8.19381C23.0735 8.18881 22.4848 9.89781 22.4817 11.9886V11.989C22.4785 14.0823 23.0619 15.7914 26.2917 15.7963C27.0335 15.7862 27.7718 15.6902 28.492 15.5099C28.5707 15.5047 28.6334 15.4421 28.6385 15.3633C28.6386 15.3052 28.494 14.1947 28.494 14.1947C28.4912 14.1163 28.4287 14.0531 28.3504 14.0493C27.6791 14.228 26.9885 14.3249 26.2939 14.3388C24.605 14.3362 24.2394 13.3256 24.2414 11.9925C24.2434 10.6641 24.4666 9.65431 26.301 9.65711C27.3263 9.65861 28.4293 10.1002 28.5006 10.1003C28.5773 10.105 28.6428 10.0462 28.6475 9.96981C28.648 9.96401 28.648 9.95821 28.6475 9.95201C28.6476 9.89261 28.5031 8.78061 28.5031 8.78061C28.4807 8.71251 28.4273 8.65931 28.3594 8.63641Z" fill="white"/>
<path d="M32.7252 14.3475V14.3471C31.2605 14.3449 30.8184 13.4648 30.8206 12.0011C30.8229 10.5373 31.2676 9.6632 32.7322 9.6654C34.1973 9.6676 34.6402 10.546 34.6381 12.0069C34.6358 13.4677 34.1932 14.3497 32.7252 14.3475ZM35.5576 8.2076L34.6492 8.2062L34.6481 8.8669C34.1743 8.4114 33.4203 8.2044 32.7349 8.2033C30.5337 8.2 29.0641 9.3668 29.0601 11.9988C29.0561 14.6308 30.5223 15.8029 32.7233 15.8063C33.7992 15.8079 34.39 15.3921 34.6437 15.1431C34.697 15.5287 35.026 15.8164 35.4148 15.8166L36.3236 15.818L36.334 8.9766C36.3301 8.5503 35.9837 8.207 35.5576 8.2076Z" fill="white"/>
<path d="M18.3974 14.3255V14.3259H18.397C16.9261 14.3237 16.4902 13.4437 16.4924 11.9799C16.4946 10.5166 16.9328 9.64159 18.4045 9.64389C19.87 9.64609 20.3092 10.5245 20.307 11.9853C20.3047 13.4461 19.8633 14.3277 18.3974 14.3255ZM18.4067 8.18169H18.4063C16.2048 8.17839 14.7342 9.34519 14.7302 11.9768C14.7262 14.6088 16.1937 15.7814 18.3948 15.7847C20.5962 15.788 22.0619 14.6216 22.0659 11.988C22.0699 9.35439 20.607 8.18509 18.4067 8.18169Z" fill="white"/>
<path d="M0 22.3244H40V36C40 38.2091 38.2091 40 36 40H4C1.79086 40 0 38.2091 0 36V22.3244Z" fill="#00B14F"/>
<path d="M19.1596 31.9513C19.1596 33.9 20.5372 35.2776 22.3963 35.2776C22.8106 35.2776 23.2923 35.1544 23.5946 34.9192V34.2584C23.393 34.4264 22.9003 34.6168 22.3963 34.6168C20.8731 34.6168 19.8428 33.5416 19.8428 31.9513C19.8428 30.4394 20.9403 29.3082 22.3963 29.3082C23.841 29.3082 24.8938 30.3722 24.8938 31.8617V35.0871H25.5658V31.8505C25.5658 29.9913 24.2554 28.625 22.3963 28.625C20.5708 28.625 19.1596 30.0698 19.1596 31.9513ZM23.5946 33.284L23.5835 33.2729C23.3034 33.4968 22.8442 33.6313 22.4075 33.6313C21.5115 33.6313 20.8395 32.9593 20.8395 31.9625C20.8395 31.0106 21.5003 30.2826 22.385 30.2826C23.337 30.2826 23.9194 30.9769 23.9194 31.9065V35.0871H24.5802V31.8729C24.5802 30.5738 23.673 29.6218 22.3963 29.6218C21.1307 29.6218 20.1563 30.5738 20.1563 31.9625C20.1563 33.3401 21.1195 34.3256 22.3963 34.292C22.8778 34.2808 23.3707 34.1016 23.5946 33.9449V33.284ZM26.2825 30.0921C26.4842 29.8346 26.7081 29.5546 26.9433 29.3194V26.2843H26.2825V30.0921ZM27.2681 26.2843V29.073C27.4697 28.9162 27.6936 28.7258 27.9289 28.6363V26.2843H27.2681ZM27.9289 31.7049H27.9064L27.3913 32.4105C27.4809 33.2168 28.2984 34.292 29.5304 34.292C30.7847 34.292 31.692 33.2729 31.692 31.9401C31.692 30.6074 30.7624 29.6218 29.4856 29.6218C28.2425 29.6218 27.5257 30.5289 27.0217 31.2009C26.7753 31.5257 26.3497 32.0521 25.8794 32.7128V33.788C26.3161 33.1384 26.9097 32.3769 27.3465 31.8505C28.0856 30.9658 28.5337 30.2938 29.4744 30.2938C30.3928 30.2938 31.02 30.9993 31.02 31.9401C31.02 32.9145 30.4263 33.6313 29.5304 33.6313C28.5896 33.6313 27.9289 32.7689 27.9289 31.8057V31.7049ZM25.8794 31.2121V32.1865C26.2714 31.6601 26.6073 31.2009 26.9209 30.8201C27.7161 29.8457 28.4104 29.3082 29.4856 29.3082C30.9416 29.3082 32.0055 30.4058 32.0055 31.9513C32.0055 33.4632 30.9639 34.6168 29.5304 34.6168C28.3657 34.6168 27.3577 33.8216 27.1225 32.7353L26.6521 33.3737C27.0217 34.4376 28.1081 35.2776 29.5192 35.2776C31.3336 35.2776 32.6663 33.8216 32.6663 31.9513C32.6663 30.0585 31.3223 28.6363 29.4856 28.6363C27.5817 28.6363 26.7081 30.0585 25.8794 31.2121ZM15.5197 35.0871H16.1805V31.6265C16.1805 30.2602 17.0989 29.3306 18.4316 29.3306C18.8796 29.3306 19.3388 29.4762 19.5404 29.5993C19.6636 29.4537 19.798 29.297 19.9772 29.1514C19.5628 28.8602 19.0028 28.6922 18.398 28.6922C16.6397 28.6922 15.5197 29.8793 15.5197 31.6377V35.0871ZM16.4941 31.6265V35.0871H17.1549V31.6377C17.1549 30.865 17.6589 30.3161 18.4092 30.3161C18.6332 30.3161 18.8348 30.3722 19.0476 30.4617C19.1372 30.249 19.2268 30.0698 19.3388 29.9018C19.1036 29.745 18.7564 29.6442 18.4204 29.6442C17.2892 29.6442 16.4941 30.4617 16.4941 31.6265ZM7.33276 31.0553C7.33276 33.4744 9.12466 35.2776 11.5326 35.2776C13.7278 35.2776 15.0718 33.9 15.0718 31.6713V30.5289H11.6111V31.1785H14.4446V31.7833C14.4446 33.5304 13.3582 34.6168 11.5326 34.6168C9.52796 34.6168 8.03836 33.0825 8.03836 31.0553C8.03836 29.0842 9.60626 27.5275 11.6335 27.5275C12.5966 27.5275 13.4702 27.7626 14.131 28.2218V27.5611C13.4926 27.1019 12.6526 26.8666 11.6335 26.8666C9.20316 26.8666 7.33276 28.7146 7.33276 31.0553ZM8.37436 31.0553C8.37436 32.8809 9.75186 34.2808 11.5326 34.2808C13.2462 34.2808 14.1086 33.1721 14.1086 31.9513V31.5145H11.6111V32.1865H13.4254C13.4366 32.8473 12.8318 33.62 11.5326 33.62C10.0991 33.62 9.10236 32.5561 9.10236 31.0553C9.10236 29.6106 10.1775 28.5242 11.6558 28.5242C12.619 28.5242 13.3806 28.7594 14.0862 29.2522L14.131 29.2186V28.5914C13.6046 28.2218 12.7086 27.8634 11.6335 27.8634C9.80786 27.8634 8.37436 29.2746 8.37436 31.0553Z" fill="white"/>
</g>
<defs>
<clipPath id="clip0">
<rect width="40" height="40" fill="white"/>
</clipPath>
</defs>
</svg>
