<svg width="40" height="40" viewBox="0 0 40 40" fill="none" xmlns="http://www.w3.org/2000/svg">
<path d="M36 0H4C1.79086 0 0 1.79086 0 4V36C0 38.2091 1.79086 40 4 40H36C38.2091 40 40 38.2091 40 36V4C40 1.79086 38.2091 0 36 0Z" fill="#AF016D"/>
<path d="M20.8 27.5V31.8C20.8 31.9 20.7 32 20.5 32H17C16.8 32 16.8 32 16.8 31.8V23.7C16.8111 23.5052 16.7585 23.3121 16.6503 23.1498C16.5421 22.9875 16.3841 22.8647 16.2 22.8C16.021 22.7044 15.8149 22.6722 15.6152 22.7085C15.4155 22.7448 15.234 22.8475 15.1 23C14.9 23.1 14.9 23.3 14.9 23.6V31.8C14.9 32 14.8 32 14.6 32H11.2C11 32 10.9 32 10.9 31.8V23.7C10.9303 23.4759 10.8752 23.2485 10.7454 23.0632C10.6157 22.8779 10.421 22.7482 10.2 22.7C9.9976 22.6564 9.78698 22.6708 9.59239 22.7415C9.3978 22.8123 9.22713 22.9366 9.10001 23.1C9.0197 23.2893 8.98542 23.4949 9.00001 23.7V31.8C9.00001 32 8.90001 32 8.70001 32H5.20001C5.00001 32 5.00001 32 5.00001 31.8V23.5C4.99826 22.6397 5.25462 21.7986 5.73595 21.0855C6.21728 20.3724 6.90145 19.8201 7.70001 19.5C8.48619 19.1059 9.36242 18.9261 10.2403 18.9787C11.1182 19.0314 11.9666 19.3147 12.7 19.8H13.1C13.6852 19.425 14.3408 19.1736 15.0267 19.0612C15.7126 18.9488 16.4142 18.9778 17.0884 19.1464C17.7627 19.3149 18.3954 19.6195 18.9476 20.0415C19.4999 20.4634 19.9601 20.9938 20.3 21.6C20.6182 22.1834 20.7898 22.8355 20.8 23.5V27.5Z" fill="#FEFCFD"/>
<path d="M20.8 12.5V16.8C20.8 17 20.7 17 20.6 17H17C16.8 17 16.8 17 16.8 16.8V8.7C16.7964 8.52058 16.749 8.34477 16.6618 8.18789C16.5747 8.03102 16.4504 7.89785 16.3 7.8C16.1241 7.7182 15.9297 7.68436 15.7365 7.70193C15.5434 7.71949 15.3583 7.78782 15.2 7.9C15.1019 7.98765 15.0242 8.09576 14.9723 8.2167C14.9205 8.33765 14.8958 8.46849 14.9 8.6V16.7C14.9 16.7394 14.8923 16.7784 14.8772 16.8148C14.8621 16.8512 14.84 16.8843 14.8121 16.9121C14.7843 16.94 14.7512 16.9621 14.7148 16.9772C14.6784 16.9922 14.6394 17 14.6 17H11.2C10.9 17 10.9 16.9 10.9 16.7V8.7C10.8973 8.53536 10.854 8.37394 10.7739 8.23006C10.6938 8.08619 10.5794 7.96432 10.4409 7.87528C10.3024 7.78623 10.144 7.73277 9.9799 7.71964C9.81576 7.70651 9.65092 7.73411 9.50001 7.8C9.10001 7.9 9.00001 8.2 9.00001 8.6V16.7C9.00001 17 8.90001 17 8.70001 17H5.20001C5.00001 17 5.00001 16.9 5.00001 16.8V8.7C4.99486 7.77474 5.26885 6.86944 5.78621 6.10232C6.30357 5.3352 7.04024 4.74193 7.90001 4.4C8.68833 4.06593 9.54585 3.92782 10.3992 3.99748C11.2525 4.06714 12.0763 4.3425 12.8 4.8C12.9 4.9 12.9 4.9 13 4.8C13.9643 4.176 15.1109 3.89575 16.2543 4.00464C17.3977 4.11354 18.4709 4.6052 19.3 5.4C20.1825 6.20013 20.7203 7.31142 20.8 8.5V12.5Z" fill="#FEFCFD"/>
<path d="M35 25.5C34.9999 26.7813 34.621 28.034 33.9111 29.1006C33.2012 30.1672 32.1919 31.0003 31.01 31.4951C29.8281 31.9898 28.5263 32.1243 27.2682 31.8815C26.0102 31.6386 24.8519 31.0294 23.939 30.1304C23.0261 29.2313 22.3993 28.0825 22.1373 26.8283C21.8753 25.5741 21.9899 24.2704 22.4666 23.0811C22.9432 21.8917 23.7608 20.8698 24.8164 20.1437C25.8721 19.4176 27.1189 19.0197 28.4 19C29.262 18.9867 30.118 19.1451 30.9182 19.4658C31.7184 19.7865 32.4468 20.2632 33.061 20.8681C33.6752 21.473 34.1629 22.194 34.4958 22.9892C34.8287 23.7844 35.0001 24.6379 35 25.5ZM31.3 25.5C31.3 24.9462 31.1358 24.4049 30.8281 23.9444C30.5204 23.4839 30.0831 23.1251 29.5715 22.9131C29.0599 22.7012 28.4969 22.6458 27.9537 22.7538C27.4106 22.8618 26.9117 23.1285 26.5201 23.5201C26.1285 23.9117 25.8618 24.4106 25.7538 24.9537C25.6458 25.4969 25.7012 26.0599 25.9131 26.5715C26.1251 27.0831 26.4839 27.5204 26.9444 27.8281C27.4049 28.1358 27.9462 28.3 28.5 28.3C28.8715 28.314 29.2418 28.2512 29.5879 28.1155C29.934 27.9797 30.2483 27.774 30.5111 27.5111C30.774 27.2483 30.9797 26.934 31.1155 26.5879C31.2512 26.2418 31.314 25.8715 31.3 25.5Z" fill="#FEFCFD"/>
<path d="M35 10.5C34.9999 11.7898 34.616 13.0504 33.8972 14.1214C33.1785 15.1924 32.1574 16.0253 30.9638 16.5142C29.7702 17.0031 28.4582 17.1258 27.1947 16.8668C25.9312 16.6078 24.7733 15.9787 23.8683 15.0597C22.9634 14.1406 22.3523 12.9731 22.1129 11.7057C21.8736 10.4383 22.0166 9.12832 22.524 7.94248C23.0313 6.75665 23.88 5.74856 24.962 5.0465C26.044 4.34444 27.3104 3.98016 28.6 4C30.3065 4.02626 31.9342 4.72265 33.1317 5.9388C34.3291 7.15495 35.0002 8.79328 35 10.5ZM25.7 10.5C25.7 11.2426 25.995 11.9548 26.5201 12.4799C27.0452 13.005 27.7574 13.3 28.5 13.3C29.2426 13.3 29.9548 13.005 30.4799 12.4799C31.005 11.9548 31.3 11.2426 31.3 10.5C31.3 9.75739 31.005 9.0452 30.4799 8.5201C29.9548 7.995 29.2426 7.7 28.5 7.7C27.7574 7.7 27.0452 7.995 26.5201 8.5201C25.995 9.0452 25.7 9.75739 25.7 10.5Z" fill="#FEFCFD"/>
<path d="M23.1 34.3C23.2066 34.1992 23.3323 34.1207 23.4697 34.0692C23.6071 34.0176 23.7534 33.9941 23.9 34C24.0148 34.0543 24.1127 34.1388 24.1832 34.2445C24.2537 34.3502 24.294 34.4731 24.3 34.6V35.9C24.3 36 24.3 36 24.2 36C24.1 36 23.8 36.1 23.8 35.7V34.8C23.8 34.6 23.8 34.5 23.5 34.4C23.412 34.4227 23.3343 34.4746 23.2798 34.5474C23.2253 34.6201 23.1971 34.7092 23.2 34.8C23.1 35.1 23.2 35.5 23.1 35.8C23 36.1 23.2 36 23.1 36C23 36 22.8 36.1 22.6 36V34.7C22.6 34.6 22.6 34.4 22.4 34.4C22.2 34.4 22 34.5 22 34.7C22 34.9 22 35.2 22 35.4V35.7C22 36 22 36 21.7 36C21.4 36 21.5 36 21.5 35.8V34.3C21.5 34.2 21.4 34 21.6 34C21.8 34 21.9 34 22 34.3C22.0415 34.204 22.1121 34.1234 22.2017 34.0696C22.2914 34.0158 22.3958 33.9914 22.5 34C22.6171 33.9958 22.7335 34.021 22.8383 34.0734C22.9431 34.1259 23.0331 34.2038 23.1 34.3Z" fill="#FAF1F9"/>
<path d="M5.50001 34.3C5.65387 34.1264 5.86882 34.0189 6.10001 34H6.40001C6.50001 34 6.50001 34.2 6.70001 34.2L7.00001 34C7.08979 33.9481 7.19149 33.9203 7.29519 33.9195C7.39889 33.9186 7.50105 33.9446 7.59171 33.9949C7.68236 34.0453 7.75841 34.1183 7.81245 34.2068C7.86648 34.2953 7.89665 34.3963 7.90001 34.5V35.8C7.90001 35.8265 7.88947 35.852 7.87072 35.8707C7.85196 35.8895 7.82653 35.9 7.80001 35.9C7.40001 35.9 7.40001 36 7.40001 35.6V34.8C7.40001 34.5 7.30001 34.3 7.10001 34.3C6.99392 34.3 6.89218 34.3421 6.81716 34.4172C6.74215 34.4922 6.70001 34.5939 6.70001 34.7V35.7C6.70001 35.9 6.60001 35.9 6.50001 35.9C6.40001 35.9 6.20001 36 6.20001 35.6V34.7C6.20001 34.5 6.20001 34.3 5.90001 34.3C5.60001 34.3 5.60001 34.4 5.50001 34.7V35.7C5.50001 35.9 5.50001 35.9 5.30001 35.9H5.20001C5.00001 36 5.00001 36 5.00001 35.9V34.3C5.00001 34.2 4.90001 34 5.10001 34C5.30001 34 5.50001 33.9 5.50001 34.3Z" fill="#FAF1F9"/>
<path d="M12 35.7C11.9 35.8 12 36 11.9 36H11.5V33.4C11.5 33.3 11.5 33.3 11.6 33.3C11.7 33.3 12 33.3 12 33.7V34.2C12.1761 34.076 12.3847 34.0065 12.6 34C12.7817 33.9943 12.9599 34.0505 13.1053 34.1596C13.2507 34.2687 13.3546 34.424 13.4 34.6C13.4 35 13.5 35.4 13.1 35.8C13.0348 35.8665 12.957 35.9194 12.8712 35.9554C12.7853 35.9915 12.6931 36.0101 12.6 36.0101C12.5069 36.0101 12.4147 35.9915 12.3288 35.9554C12.243 35.9194 12.1652 35.8665 12.1 35.8L12 35.7ZM12.9 35C12.9046 34.9458 12.8981 34.8913 12.8809 34.8397C12.8637 34.7881 12.8362 34.7406 12.8 34.7C12.8 34.6204 12.7684 34.5441 12.7121 34.4879C12.6559 34.4316 12.5796 34.4 12.5 34.4C12.3 34.4 12.1 34.5 12.1 34.7C12.0532 34.8108 12.0292 34.9298 12.0292 35.05C12.0292 35.1702 12.0532 35.2892 12.1 35.4C12.1346 35.4625 12.1853 35.5146 12.2468 35.5509C12.3084 35.5872 12.3785 35.6063 12.45 35.6063C12.5215 35.6063 12.5916 35.5872 12.6532 35.5509C12.7147 35.5146 12.7654 35.4625 12.8 35.4C12.9 35.3 12.9 35.2 12.9 35Z" fill="#FAF1F9"/>
<path d="M34 35.4C34.1614 35.0442 34.2951 34.6764 34.4 34.3C34.4 34.2204 34.4316 34.1441 34.4879 34.0879C34.5441 34.0316 34.6204 34 34.7 34C34.8 34.1 34.9 34 35 34L34.8 34.6L34.2 36.3C34.1328 36.4759 34.0058 36.6226 33.8411 36.714C33.6765 36.8055 33.4849 36.8359 33.3 36.8C33.1 36.7 33.2 36.5 33.1 36.4C33 36.3 33.2 36.4 33.3 36.4C33.4 36.4 33.8 36.1 33.7 35.8C33.5091 35.2491 33.275 34.7141 33 34.2C33 34.1 33 34 33.2 34C33.4 34 33.5 34 33.7 34.4L34 35.4Z" fill="#FAF1F9"/>
<path d="M25.2 35C25.1859 34.8737 25.1987 34.7458 25.2375 34.6248C25.2764 34.5038 25.3404 34.3924 25.4255 34.2979C25.5105 34.2034 25.6146 34.1281 25.7308 34.0767C25.8471 34.0254 25.9729 33.9992 26.1 34C26.2395 33.986 26.3803 34.0014 26.5135 34.0454C26.6466 34.0893 26.769 34.1608 26.8727 34.255C26.9764 34.3493 27.0592 34.4644 27.1155 34.5927C27.1719 34.7211 27.2007 34.8598 27.2 35C27.2161 35.1352 27.2013 35.2723 27.1567 35.4009C27.1121 35.5296 27.039 35.6464 26.9427 35.7427C26.8464 35.839 26.7296 35.9121 26.6009 35.9567C26.4723 36.0013 26.3352 36.0161 26.2 36C25.6 36.1 25.2 35.7 25.2 35ZM26.6 35.1C26.6 34.7 26.4 34.4 26.2 34.4C26.0588 34.4239 25.9307 34.4975 25.839 34.6075C25.7473 34.7176 25.698 34.8568 25.7 35V35.3C25.7214 35.3692 25.7576 35.4329 25.8061 35.4867C25.8545 35.5406 25.9141 35.5832 25.9807 35.6117C26.0473 35.6403 26.1192 35.654 26.1916 35.652C26.264 35.6499 26.3351 35.6322 26.4 35.6C26.6 35.5 26.6 35.2 26.6 35.1Z" fill="#FAF1F9"/>
<path d="M10.7 35C10.7 35.6 10.3 36.1 9.70001 36C9.4348 36 9.18044 35.8946 8.99291 35.7071C8.80537 35.5196 8.70001 35.2652 8.70001 35C8.70001 34.7348 8.80537 34.4804 8.99291 34.2929C9.18044 34.1054 9.4348 34 9.70001 34C9.83521 33.9839 9.97229 33.9987 10.1009 34.0433C10.2296 34.0879 10.3464 34.161 10.4427 34.2573C10.539 34.3536 10.6122 34.4704 10.6567 34.5991C10.7013 34.7277 10.7161 34.8648 10.7 35ZM10.2 35C10.2 34.9 10.2 34.9 10.1 34.8C10.1 34.6939 10.0579 34.5922 9.98285 34.5172C9.90784 34.4421 9.8061 34.4 9.70001 34.4C9.50001 34.4 9.30001 34.5 9.30001 34.7C9.24735 34.7912 9.21963 34.8947 9.21963 35C9.21963 35.1053 9.24735 35.2088 9.30001 35.3C9.30001 35.5 9.40001 35.6 9.70001 35.6C10 35.6 10.2 35.4 10.2 35Z" fill="#FAF1F9"/>
<path d="M31.7 35.2H31.1C31.1667 35.4 31.2667 35.5 31.4 35.5C31.6 35.6 31.7 35.5 31.8 35.4C31.9 35.3 32.3 35.3 32.3 35.4C32.3 35.5 32.3 35.5 32.3 35.5C32.2545 35.6016 32.1854 35.691 32.0984 35.7605C32.0115 35.8301 31.9092 35.8779 31.8 35.9C31 36.1 30.4 35.6 30.6 34.7C30.8 33.8 31 33.9 31.4 33.9C31.6078 33.8948 31.8109 33.9617 31.975 34.0893C32.1391 34.2169 32.2539 34.3973 32.3 34.6C32.4 35.1 32.4 35.1 32 35.1L31.7 35.2ZM31.5 34.8H31.9C31.8 34.7 31.7 34.5 31.5 34.5C31.3 34.5 31.2 34.6 31.1 34.8C31 35 31.1 35 31.2 34.9L31.5 34.8Z" fill="#FAF1F9"/>
<path d="M28.4 34.4C28.4931 34.2758 28.6139 34.175 28.7528 34.1056C28.8916 34.0361 29.0448 34 29.2 34C29.3412 34.0239 29.4693 34.0975 29.561 34.2075C29.6527 34.3176 29.702 34.4568 29.7 34.6V35.9C29.7 36 29.7 36 29.6 36H29.5C29.3 36 29.2 36 29.2 35.7C29.2991 35.4082 29.2991 35.0918 29.2 34.8C29.2 34.5 29.1 34.4 28.9 34.4C28.7939 34.4 28.6922 34.4421 28.6172 34.5172C28.5421 34.5922 28.5 34.6939 28.5 34.8V35.8C28.5 36 28.5 36 28.3 36C27.9 36 28 36.1 28 35.7V34.2C28 34.1 28 34 28.1 34.1C28.2 34.2 28.5 34 28.4 34.4Z" fill="#FAF1F9"/>
<path d="M18.2 35.2H17.7C17.6 35.2 17.5 35.2 17.6 35.3C17.6 35.3796 17.6316 35.4559 17.6879 35.5121C17.7441 35.5684 17.8204 35.6 17.9 35.6C17.9133 35.653 17.9471 35.6986 17.9939 35.7268C18.0408 35.7549 18.097 35.7633 18.15 35.75C18.2031 35.7367 18.2487 35.703 18.2768 35.6561C18.3049 35.6092 18.3133 35.553 18.3 35.5C18.3 35.3 18.5 35.4 18.6 35.4C18.7 35.4 18.9 35.5 18.7 35.7C18.5969 35.8615 18.4392 35.9806 18.2557 36.0356C18.0722 36.0907 17.875 36.078 17.7 36C17.5481 35.9795 17.4071 35.9097 17.2987 35.8013C17.1903 35.6929 17.1205 35.5519 17.1 35.4C17.0548 35.2556 17.0398 35.1034 17.0561 34.9529C17.0724 34.8024 17.1196 34.6569 17.1947 34.5255C17.2698 34.3941 17.3712 34.2796 17.4925 34.1892C17.6139 34.0988 17.7526 34.0344 17.9 34C18.0918 34.0032 18.2786 34.0614 18.4381 34.1678C18.5977 34.2742 18.7233 34.4242 18.8 34.6C19 35.1 18.9 35.2 18.4 35.2H18.2ZM17.9 34.8H18.2C18.3 34.9 18.4 34.8 18.3 34.7C18.2 34.6 18.1 34.4 17.9 34.4C17.8606 34.4 17.8216 34.4078 17.7852 34.4228C17.7488 34.4379 17.7157 34.46 17.6879 34.4879C17.66 34.5157 17.6379 34.5488 17.6228 34.5852C17.6078 34.6216 17.6 34.6606 17.6 34.7C17.5 34.8 17.5 34.9 17.7 34.8H17.9Z" fill="#FAF1F9"/>
<path d="M16.2 34.7V35.8C16.2 36 16.2 36 16.1 36C16 36 15.7 36 15.7 35.7V33.5C15.7 33.3 15.8 33.3 15.9 33.3C16 33.3 16.2 33.2 16.2 33.6V34.7Z" fill="#FAF1F9"/>
<path d="M14.8 35C14.8 35.3 14.7 35.6 14.8 35.8C14.9 36 14.7 36 14.6 36C14.5 36 14.2 36 14.2 35.7C14.2501 35.2013 14.2501 34.6987 14.2 34.2C14.2 34.147 14.2211 34.0961 14.2586 34.0586C14.2961 34.0211 14.347 34 14.4 34C14.8 34.1 14.8 34 14.8 34.4V35Z" fill="#FEFCFD"/>
<path d="M14.5 33.3C14.7 33.2 14.8 33.4 14.8 33.5C14.8 33.6 14.6 33.8 14.5 33.8C14.4 33.8 14.3 33.7 14.2 33.5C14.1 33.3 14.3 33.3 14.5 33.3Z" fill="#FAF1F9"/>
</svg>
