<svg id="Layer_1" data-name="Layer 1" xmlns="http://www.w3.org/2000/svg" viewBox="0 0 40 40"><defs><style>.cls-1{fill:#ee4d2a;}</style></defs><path class="cls-1" d="M40,5.31V34.67a.44.44,0,0,0-.07.22A6.2,6.2,0,0,1,33.73,40h-28l-.39,0A6.25,6.25,0,0,1,.5,36.28,6.43,6.43,0,0,1,0,33.71Q0,20,0,6.27C0,6.11,0,6,0,5.8A5.71,5.71,0,0,1,.53,3.65,6.11,6.11,0,0,1,2.19,1.44,6.29,6.29,0,0,1,4.5.21,5.6,5.6,0,0,0,5.33,0H34.69a.33.33,0,0,0,.16.07,5.91,5.91,0,0,1,2.26.85,6.18,6.18,0,0,1,2.76,3.87A1.59,1.59,0,0,0,40,5.31ZM2.63,24.7v6.42c0,.11,0,.22,0,.33a.44.44,0,0,0,.42.42,6.55,6.55,0,0,0,1.4,0,.44.44,0,0,0,.39-.4c0-.11,0-.22,0-.33V27.86c0-.37,0-.38.36-.38h3a5,5,0,0,0,.86-.05,5.4,5.4,0,0,0,3.47-2,4.6,4.6,0,0,0,1-3.23,4.67,4.67,0,0,0-1.77-3.45A5.34,5.34,0,0,0,8.26,17.5H3.79c-.22,0-.44,0-.66,0a.46.46,0,0,0-.48.42,2.88,2.88,0,0,0,0,.41Zm21.86,1.94V21.81c0-.17-.06-.26-.25-.26H23a.49.49,0,0,0-.52.49,3.38,3.38,0,0,0,0,.45c0,.07,0,.15,0,.19s-.15,0-.21-.07l-.15-.12a5.24,5.24,0,0,0-4.26-.8,5,5,0,0,0-3.45,2.7,4.77,4.77,0,0,0,.13,4.67,4.82,4.82,0,0,0,1.39,1.59,5.15,5.15,0,0,0,4.73.83,4.75,4.75,0,0,0,1.63-.83c.05,0,.11-.11.18-.08s.05.14.05.21,0,.26,0,.39c0,.44.27.55.59.55h1c.36,0,.38,0,.38-.37Zm4.18,9.6c.34,0,.69,0,1,0a.31.31,0,0,0,.3-.17c.41-.78.84-1.56,1.25-2.34l2.64-4.94c.63-1.15,1.25-2.31,1.87-3.47S37,23.1,37.54,22c.15-.27.05-.43-.25-.43H35.22a.28.28,0,0,0-.27.17c-.61,1.16-1.22,2.3-1.82,3.46l-1.35,2.55c0,.05-.05.14-.12.14s-.09-.09-.12-.14l-.75-1.37c-.82-1.53-1.65-3.05-2.48-4.58a.38.38,0,0,0-.39-.23H26c-.39,0-.47.14-.29.48l1.42,2.73c.57,1.13,1.15,2.25,1.73,3.37.38.74.74,1.49,1.16,2.21a.82.82,0,0,1,0,.91c-.85,1.55-1.69,3.12-2.53,4.68-.11.21-.06.29.17.3ZM7.1,14.64h3.38l.43,0a.79.79,0,0,0,.73-.82c0-1.61,0-3.22,0-4.82a.77.77,0,0,0-.2-.52.85.85,0,0,0-.71-.33H4.12a.82.82,0,0,1-.38-.05.34.34,0,0,1-.21-.38c0-.17.18-.17.31-.17H9.5l.33,0a.18.18,0,0,0,.19-.2V6.88c0-.38-.12-.49-.49-.46-.66,0-1.32.1-2,.16L5.13,6.8,3.38,7a.81.81,0,0,0-.65.45,1.24,1.24,0,0,0-.1.66v5.56c0,.7.31,1,1,1Zm19.17-1.72c0,.8,0,1.59,0,2.38,0,.26,0,.27.32.27s.28,0,.28-.27V13.62c0-.06,0-.14.05-.18s.12,0,.17.06a1.75,1.75,0,0,0,2.41-.57A1.73,1.73,0,0,0,28,10.3a1.73,1.73,0,0,0-1,.27c-.08,0-.17.12-.2-.06s-.07-.24-.39-.23-.22.1-.22.26C26.27,11.34,26.27,12.13,26.27,12.92Zm-10.39.87.42,0a1.53,1.53,0,0,0,1.32-1.15,1.2,1.2,0,0,0-.29-1.23A3.23,3.23,0,0,0,16,10.62a3.19,3.19,0,0,1-1-.44A.72.72,0,0,1,15,9a1.22,1.22,0,0,1,.85-.2,2.64,2.64,0,0,1,1,.32c.16.1.25,0,.39-.21s0-.23-.1-.3a2.58,2.58,0,0,0-.59-.26,2.17,2.17,0,0,0-2,.21,1.29,1.29,0,0,0,0,2.11,4.54,4.54,0,0,0,1.35.6,2.18,2.18,0,0,1,.83.42.78.78,0,0,1-.11,1.3,1.66,1.66,0,0,1-1.09.19,2.32,2.32,0,0,1-1.15-.46c-.05,0-.12-.11-.19-.07a.61.61,0,0,0-.27.36c0,.12.07.18.15.23A3,3,0,0,0,15.88,13.79ZM18.25,11v2.47c0,.3,0,.32.31.32s.31,0,.31-.31V12a1.51,1.51,0,0,1,0-.3.9.9,0,0,1,.77-.79,1,1,0,0,1,1.13.49,1.18,1.18,0,0,1,.12.59v1.48c0,.23,0,.25.26.26h.12c.17,0,.24-.06.24-.23,0-.55,0-1.11,0-1.66a1.64,1.64,0,0,0-2.35-1.4c-.29.15-.3.14-.3-.18V8.6c0-.09,0-.17,0-.26s0-.12-.08-.14a.66.66,0,0,0-.44,0c-.12.05-.09.18-.09.28Zm14.09,1.29h1.07c.28,0,.36-.09.33-.36a1.7,1.7,0,0,0-2.27-1.48,1.76,1.76,0,0,0-.64,2.79,2.08,2.08,0,0,0,2.55.26c.29-.19.31-.28.1-.56-.09-.11-.17-.13-.28,0a1.44,1.44,0,0,1-.86.31,1.25,1.25,0,0,1-1.27-.67c-.08-.19-.05-.25.16-.26Zm4,0h1.05c.27,0,.36-.08.33-.36a1.67,1.67,0,0,0-3.12-.73,1.77,1.77,0,0,0,.19,2,2.1,2.1,0,0,0,2.57.31c.3-.18.31-.31.09-.58-.07-.1-.15-.12-.24,0a1.45,1.45,0,0,1-1,.32A1.23,1.23,0,0,1,35,12.52c-.09-.19,0-.26.16-.27ZM22.12,12a1.77,1.77,0,1,0,1.75-1.72A1.75,1.75,0,0,0,22.12,12Z"/><path class="cls-1" d="M4.86,22.45V19.93c0-.31,0-.32.31-.32,1,0,2.1,0,3.14,0A3,3,0,0,1,11,21.07a2.75,2.75,0,0,1-.14,3,2.92,2.92,0,0,1-2.38,1.22c-1.1,0-2.21,0-3.31,0-.25,0-.28,0-.28-.28Z"/><path class="cls-1" d="M22.05,26.62a3,3,0,0,1-3,3,3,3,0,0,1-3-3.05,3,3,0,0,1,3-2.84A2.94,2.94,0,0,1,22.05,26.62Z"/><path class="cls-1" d="M7.27,13.76a2.53,2.53,0,0,1-1.52-.45c-.19-.14-.21-.21-.08-.4s.18-.17.37,0a1.9,1.9,0,0,0,1.22.39,1.23,1.23,0,0,0,.62-.2.68.68,0,0,0-.09-1.2,4.27,4.27,0,0,0-.91-.38A2.13,2.13,0,0,1,6,11a1.08,1.08,0,0,1,.13-1.63A1.64,1.64,0,0,1,7.55,9.1a3.1,3.1,0,0,1,.79.28c.11.07.21.13.12.29s-.17.23-.35.14a2.41,2.41,0,0,0-1-.28,1.06,1.06,0,0,0-.66.25.58.58,0,0,0,0,.89A1.53,1.53,0,0,0,7,11a5.85,5.85,0,0,1,1.15.49,1.14,1.14,0,0,1,.54,1.26,1.17,1.17,0,0,1-.83.92A1.72,1.72,0,0,1,7.27,13.76Z"/><path class="cls-1" d="M29.15,12A1.14,1.14,0,1,1,28,10.88,1.11,1.11,0,0,1,29.15,12Z"/><path class="cls-1" d="M32.06,11.65h-.8c-.18,0-.23-.07-.13-.23a1,1,0,0,1,.92-.52,1.09,1.09,0,0,1,1,.57c.08.13,0,.19-.12.18h-.83Z"/><path class="cls-1" d="M36,11.64h-.84c-.14,0-.2,0-.13-.18a1,1,0,0,1,1-.56,1,1,0,0,1,1,.59c.07.12,0,.16-.11.16H36Z"/><path class="cls-1" d="M22.73,12a1.16,1.16,0,1,1,1.14,1.14A1.12,1.12,0,0,1,22.73,12Z"/></svg>