<svg id="Layer_1" data-name="Layer 1" xmlns="http://www.w3.org/2000/svg" viewBox="0 0 40 40"><defs><style>.cls-1{fill:#fe0007;}.cls-2{fill:#0059ae;}.cls-3{fill:#005aaf;}.cls-4{fill:#fe0000;}.cls-5{fill:#004daa;}.cls-6{fill:#004eaa;}.cls-7{fill:#004da9;}.cls-8{fill:#004faa;}.cls-9{fill:#014fab;}.cls-10{fill:#9dc5e4;}.cls-11{fill:#004ea8;}.cls-12{fill:#009ddf;}.cls-13{fill:#fefefe;}.cls-14{fill:#0050aa;}.cls-15{fill:#d3d3d3;}</style></defs><path class="cls-1" d="M15.13,19.28a2.77,2.77,0,0,0,2.27-1l1.42-1.39,1.51-1.48,3.38-3.32,2.47-2.43a.94.94,0,0,1,1.09-.21.59.59,0,0,1,.18.13L31,13.2a1.09,1.09,0,0,1,0,1.58L26.89,19l-3.46,3.51a3.54,3.54,0,0,1-4.88.16c-.48-.42-.91-.88-1.35-1.33l-2-2S15.15,19.29,15.13,19.28Z"/><path class="cls-2" d="M12.36,16.46l-.32-.3-3-3a1.15,1.15,0,0,1,0-1.64l5.28-5.28a1.18,1.18,0,0,1,1.71,0l5.39,5.4s0,.05,0,.07l-.43.42a.07.07,0,0,1-.06,0c-.05,0-.08-.07-.12-.11l-.44-.43a.2.2,0,0,0-.34.08.19.19,0,0,0,.07.2l.37.37a.9.9,0,0,1,.15.19c0,.05,0,.07-.06.1L20,13s-.05.07-.11.05c-.61-.62-1.22-1.24-1.84-1.84a2.66,2.66,0,0,0-1.5-.71,2.79,2.79,0,0,0-1.15.06l-.17.06a.19.19,0,0,0-.1.23.2.2,0,0,0,.22.14c.09,0,.18-.05.28-.07a2.38,2.38,0,0,1,2.12.56c.21.18.39.4.59.59.43.42.84.85,1.27,1.26,0,.05,0,.07,0,.09l-.52.53S19,14,19,14l-1.11-1.11-.54-.56a1.64,1.64,0,0,0-1.05-.53,1.53,1.53,0,0,0-1,.29,1.53,1.53,0,0,0-.18,2.29l.92.92a1.14,1.14,0,0,1,.15.16.29.29,0,0,0,.12.1.21.21,0,0,0,.23-.05.2.2,0,0,0,0-.24l-.08-.08c-.38-.37-.74-.76-1.11-1.14a.92.92,0,0,1-.26-.53,1.06,1.06,0,0,1,.45-1.11,1.12,1.12,0,0,1,1.43.1l1.24,1.25.51.52s0,.06,0,.09l-.53.52-.06,0a1,1,0,0,1-.3-.28l-.05-.05-1.42-1.42a.19.19,0,0,0-.27,0,.2.2,0,0,0,0,.27.69.69,0,0,0,.11.13l1.56,1.56a.43.43,0,0,1,.09.1.15.15,0,0,1-.06.1l-.82.81a3.43,3.43,0,0,1-.67.52.2.2,0,0,1-.13,0,2.23,2.23,0,0,1-.27-.26c-.43-.47-.9-.91-1.35-1.36a2.49,2.49,0,0,1-.74-1.55A2.37,2.37,0,0,1,14.11,12l.07-.12a.2.2,0,0,0-.09-.25.18.18,0,0,0-.25.06,2.09,2.09,0,0,0-.26.46,2.8,2.8,0,0,0,.47,3c.49.55,1,1,1.55,1.58,0,0,.09.07.09.13s0,0-.08.05a3.47,3.47,0,0,1-.89.2h-.05c-.41-.42-.84-.82-1.23-1.25a4.09,4.09,0,0,1-.51-.67,3.68,3.68,0,0,1-.48-1.37,3.73,3.73,0,0,1,.25-2,3.69,3.69,0,0,1,1.62-1.82,3.65,3.65,0,0,1,1.44-.47,3.76,3.76,0,0,1,1.93.29,3.88,3.88,0,0,1,1.11.75c.13.12.25.14.34,0s.06-.21-.06-.33a4.15,4.15,0,0,0-2.26-1.12,4.15,4.15,0,0,0-4.74,3.38,4.1,4.1,0,0,0,.62,3,3.69,3.69,0,0,0,.56.68l.68.69s.1.07.1.14a.06.06,0,0,1-.07,0A3.37,3.37,0,0,1,12.36,16.46Z"/><path class="cls-1" d="M14.66,17.12a3.22,3.22,0,0,0,1-.23,2.35,2.35,0,0,1,.43-.19,3.19,3.19,0,0,0,.75-.56c.31-.3.61-.61.91-.91a1.3,1.3,0,0,1,.31-.31l.63-.63A1.18,1.18,0,0,1,19,14l.64-.64a1.18,1.18,0,0,1,.29-.3l.63-.63a1.3,1.3,0,0,1,.31-.31l.51-.51,1.35-1.35c.59-.58,1.13-1.2,1.69-1.8A1.28,1.28,0,0,1,25.14,8a1,1,0,0,1,.9.22c.29.28.56.58.83.86l-.25,0a1.29,1.29,0,0,0-.64.34l-2.72,2.69-4.32,4.24L17.09,18.2a2.47,2.47,0,0,1-1.34.73,1.77,1.77,0,0,1-1-.12.24.24,0,0,1-.09-.06l-2.24-2.26,0,0s.06,0,.08,0a3.43,3.43,0,0,0,1.6.6h.49C14.58,17.1,14.62,17.09,14.66,17.12Z"/><path class="cls-1" d="M16.77,31.46a2.36,2.36,0,0,1-.86-.71l-2.49-3.21-.09-.11v3.35a.44.44,0,0,0,.09.27l.41.52H12l.27-.41a.79.79,0,0,0,.16-.51c0-1.5,0-3,0-4.48a.37.37,0,0,0-.07-.23l-.46-.74h1.84a.16.16,0,0,1,.14.07l3,3.83s0,.06.06.07,0-.05,0-.07v-3a.63.63,0,0,0-.12-.4l-.31-.46h1.86l-.41.52a.31.31,0,0,0-.12.26v5.63c0,.08,0,.1-.1.09a3.08,3.08,0,0,1-.84-.23A.16.16,0,0,0,16.77,31.46Z"/><path class="cls-3" d="M22.64,31.38a2.72,2.72,0,0,0,.52-1.1c.47-1.35.92-2.7,1.4-4a1,1,0,0,0-.14-1c0-.05.06,0,.09,0h2.12c.14.38.29.76.43,1.13.53,1.44,1.07,2.88,1.6,4.31a1.72,1.72,0,0,0,.37.55l.2.21c.05.1.05.1-.06.1H26.71s-.09,0-.11,0a.92.92,0,0,0,.2-1c-.09-.26-.19-.52-.29-.77a.25.25,0,0,0,0-.09s0,0-.07,0H24.47s0,0-.06,0a5,5,0,0,0-.22.65c-.05.12-.08.25-.13.38a.82.82,0,0,0,.12.81c0,.07,0,.07-.08.07H22.66s-.07,0-.09,0,0-.05,0-.07S22.64,31.4,22.64,31.38Z"/><path class="cls-3" d="M18.81,31.5a3.37,3.37,0,0,0,.22-.35,1.07,1.07,0,0,0,.09-.27s0,0,0,0v-5s0,0,0,0c0-.27-.25-.4-.42-.56,0,0,0,0,0,0h3.05a1.72,1.72,0,0,1,1.72,1.4,1.86,1.86,0,0,1-.37,1.62,1.72,1.72,0,0,1-1.28.61c-.26,0-.52,0-.78,0a1.33,1.33,0,0,0,.48-.41,1.89,1.89,0,0,0,.08-1.91.79.79,0,0,0-.81-.39s0,0,0,.05v4.59a.54.54,0,0,0,.11.35l.27.36c0,.05-.06,0-.1,0H18.9S18.83,31.54,18.81,31.5Z"/><path class="cls-1" d="M5.47,25.2h1.9c.07,0,.08,0,.1.08.26.77.53,1.54.8,2.31l.81,2.32s0,0,0-.06l1.35-3.78a.4.4,0,0,0,0-.34c-.07-.15-.15-.31-.23-.46s0-.07,0-.07c.45,0,.89,0,1.33,0,.08,0,.07,0,.06.08-.11.35-.23.69-.35,1-.61,1.76-1.21,3.52-1.82,5.29,0,.08-.06.11-.15.08A3.21,3.21,0,0,1,8,31.11a2,2,0,0,1-.61-.85c-.37-1-.73-1.92-1.09-2.88-.22-.57-.44-1.14-.65-1.71A5,5,0,0,0,5.47,25.2Z"/><path class="cls-3" d="M30.09,31.5l.26-.36a.3.3,0,0,0,0-.16c0-.7,0-1.41,0-2.11a.77.77,0,0,0-.15-.49c-.66-.93-1.31-1.87-2-2.81a1.86,1.86,0,0,0-.27-.29s0,0,.09,0h2l.68,1.09.74,1.21c0,.07.07.07.12,0a.39.39,0,0,0,.08-.1l.83-1.23a.71.71,0,0,0,0-1s0,0,.09,0h1.78a.09.09,0,0,1,.09,0c-.28.4-.56.79-.83,1.19l-1.47,2.07a.26.26,0,0,0,0,.15c0,.75,0,1.51,0,2.27a.25.25,0,0,0,.06.17c.11.12.21.24.31.37s-.07.05-.12.05H30.21C30.16,31.55,30.1,31.57,30.09,31.5Z"/><path class="cls-4" d="M16.77,31.46s.06,0,.09,0a3.56,3.56,0,0,0,.85.23c.06,0,.09,0,.08-.08V26a.38.38,0,0,1,.09-.27s0-.05.05,0a.5.5,0,0,0-.1.33c0,1.86,0,3.71,0,5.57,0,.1,0,.11-.12.1A3.55,3.55,0,0,1,16.77,31.46Z"/><path class="cls-5" d="M19.12,25.81v-.06h0V31s0-.06,0-.09,0-.05,0-.07V25.89S19.12,25.84,19.12,25.81Z"/><path class="cls-6" d="M18.81,31.5s.07,0,.11,0h2.13a.22.22,0,0,0,.11,0s0,0,0,0,0,0,0,0H18.83C18.75,31.55,18.78,31.52,18.81,31.5Z"/><path class="cls-7" d="M26.63,25.25c0,.05-.08,0-.12,0h-2a.2.2,0,0,0-.11,0s-.06-.05,0-.06h2.1S26.61,25.2,26.63,25.25Z"/><path class="cls-5" d="M30.15,25.25s-.08,0-.12,0H28.14a.2.2,0,0,0-.13,0s0,0,0-.05.06,0,.1,0h2S30.13,25.2,30.15,25.25Z"/><path class="cls-7" d="M34.53,25.28a.25.25,0,0,0-.12,0H32.69a.23.23,0,0,0-.12,0,.08.08,0,0,1,0-.05h2s.06,0,.08,0S34.54,25.27,34.53,25.28Z"/><path class="cls-8" d="M22.64,31.38c0,.07-.06.07-.06.12s0,0,.07,0h1.44s.08,0,.09-.05l.1.08h-1.8Z"/><path class="cls-9" d="M26.6,31.51a.18.18,0,0,0,.1,0h2.54s0,0,0-.08l.11.1s-.05,0-.08,0H26.63s-.06,0-.08,0A.1.1,0,0,1,26.6,31.51Z"/><path class="cls-10" d="M26.55,31.55h2.79s-.05,0-.07,0H26.55Z"/><path class="cls-8" d="M30.09,31.5a.12.12,0,0,0,.1,0h2.26a.12.12,0,0,0,.1,0l0,0s0,0-.05,0H30.05Z"/><path class="cls-10" d="M30.05,31.55h2.48s0,0,.06,0,0,0,0,0H30.15S30.07,31.59,30.05,31.55Z"/><path class="cls-11" d="M24.41,29.62s0,0,0,0h2v0H24.41Z"/><path class="cls-12" d="M14.66,17.12a2.56,2.56,0,0,1-.62,0l-.87-.87a4.17,4.17,0,0,1-1.11-2.14,4,4,0,0,1-.07-.84,4.15,4.15,0,0,1,.93-2.56A4,4,0,0,1,14.4,9.53a4,4,0,0,1,1.26-.36,4.11,4.11,0,0,1,1.81.17,3.92,3.92,0,0,1,1.36.74l.31.27a.24.24,0,0,1,0,.34.23.23,0,0,1-.34,0,3.79,3.79,0,0,0-.93-.67,3.43,3.43,0,0,0-1.2-.38,4,4,0,0,0-.49,0,3.77,3.77,0,0,0-1.56.33,3.63,3.63,0,0,0-1.28.95,3.72,3.72,0,0,0-.83,1.63,3.76,3.76,0,0,0,.76,3.2c.4.48.87.89,1.31,1.34C14.62,17.06,14.66,17.08,14.66,17.12Z"/><path class="cls-12" d="M19,14l-.3.29s-.07,0-.09-.06L17,12.56a1.05,1.05,0,0,0-1.11-.29,1.07,1.07,0,0,0-.76.84,1,1,0,0,0,.28,1L16.5,15.2a.22.22,0,0,1,0,.33.23.23,0,0,1-.32,0,1.06,1.06,0,0,1-.15-.15l-1-1a1.53,1.53,0,0,1-.44-1,1.51,1.51,0,0,1,.44-1.23,1.55,1.55,0,0,1,1.19-.45,1.51,1.51,0,0,1,1,.46L19,13.93A.18.18,0,0,1,19,14Z"/><path class="cls-12" d="M16.11,16.7a1.52,1.52,0,0,1-.43.19c0-.07-.12-.12-.18-.19l-1.28-1.28A2.87,2.87,0,0,1,13.39,14a2.82,2.82,0,0,1,.4-2.24.22.22,0,0,1,.33-.09.23.23,0,0,1,.05.33,2.48,2.48,0,0,0-.35.82,2.43,2.43,0,0,0,.38,1.92,2.57,2.57,0,0,0,.35.39l1.15,1.17C15.84,16.41,16,16.55,16.11,16.7Z"/><path class="cls-12" d="M19.94,13.06l-.29.3s-.06,0-.09-.06L18.1,11.83a3.38,3.38,0,0,0-.64-.56,2.35,2.35,0,0,0-1.12-.36,2.47,2.47,0,0,0-.9.1.22.22,0,1,1-.13-.42,2.94,2.94,0,0,1,2.21.19,2.83,2.83,0,0,1,.63.46L19.88,13S19.94,13,19.94,13.06Z"/><path class="cls-12" d="M18.08,14.92a3,3,0,0,1-.31.31l-.5-.49-1.19-1.2a.31.31,0,0,1-.12-.18.22.22,0,0,1,.11-.24.23.23,0,0,1,.27,0c.37.38.74.75,1.12,1.12C17.67,14.49,17.86,14.72,18.08,14.92Z"/><path class="cls-12" d="M20.88,12.12a3,3,0,0,1-.31.31L20,11.86a.22.22,0,0,1,0-.31.22.22,0,0,1,.29,0Z"/><path class="cls-13" d="M25.41,26.75c.15.42.3.82.45,1.21l.29.77c0,.06,0,.07,0,.07H24.76c-.05,0-.08,0-.05-.07.23-.64.45-1.29.68-1.94Z"/><path class="cls-14" d="M20.76,26.16v4.76h0V26.16Z"/><path class="cls-15" d="M36,.75A3.26,3.26,0,0,1,39.25,4V36A3.26,3.26,0,0,1,36,39.25H4A3.26,3.26,0,0,1,.75,36V4A3.26,3.26,0,0,1,4,.75H36M36,0H4A4,4,0,0,0,0,4V36a4,4,0,0,0,4,4H36a4,4,0,0,0,4-4V4a4,4,0,0,0-4-4Z"/></svg>